<svg width="109" height="76" viewBox="0 0 109 76" fill="none" xmlns="http://www.w3.org/2000/svg">
<g filter="url(#filter0_d)">
<path fill-rule="evenodd" clip-rule="evenodd" d="M95.6117 42.6056C95.6117 28.5498 85.8517 19.2612 72.031 19.2612C64.4422 19.2612 58.0878 21.9812 53.8361 26.7917V20.0274H41.6613V26.7618C38.8116 22.8385 33.5386 19.2612 25.8514 19.2612C13.676 19.2612 4 28.7228 4 43.4624C4 58.2017 13.676 68.001 25.7674 68.001C33.3707 68.001 38.8116 64.4242 41.6613 60.3293V67.2352H53.8361V60.321C58.1185 65.2214 64.5266 68.001 72.031 68.001C83.8633 68.001 91.8102 61.0943 94.4007 52.4068H81.3566C79.8018 55.5617 76.9525 58.1182 71.7718 58.1182C65.7224 58.1182 60.8913 54.1941 60.2823 47.2131H95.2617C95.5207 45.6717 95.6117 44.139 95.6117 42.6056ZM28.9614 57.5205C22.4851 57.5205 16.3516 52.4091 16.3516 43.4647C16.3516 34.5142 22.4851 29.7462 28.9614 29.7462C35.6131 29.7462 41.6623 34.6842 41.6623 43.629C41.6623 52.5817 35.6131 57.5205 28.9614 57.5205ZM71.6882 29.0603C65.8979 29.0603 61.3184 32.7221 60.3731 39.2011H83.086C82.911 32.9768 77.9053 29.0603 71.6882 29.0603Z" fill="white"/>
<path d="M91.6833 6.26318C91.6833 2.75011 94.3051 0 97.9458 0C101.515 0 104.209 2.75011 104.209 6.26318C104.209 9.77676 101.515 12.5262 97.9458 12.5262C94.3051 12.5262 91.6833 9.77676 91.6833 6.26318Z" fill="white"/>
</g>
<defs>
<filter id="filter0_d" x="0" y="0" width="108.209" height="76.001" filterUnits="userSpaceOnUse" color-interpolation-filters="sRGB">
<feFlood flood-opacity="0" result="BackgroundImageFix"/>
<feColorMatrix in="SourceAlpha" type="matrix" values="0 0 0 0 0 0 0 0 0 0 0 0 0 0 0 0 0 0 127 0"/>
<feOffset dy="4"/>
<feGaussianBlur stdDeviation="2"/>
<feColorMatrix type="matrix" values="0 0 0 0 0 0 0 0 0 0 0 0 0 0 0 0 0 0 0.25 0"/>
<feBlend mode="normal" in2="BackgroundImageFix" result="effect1_dropShadow"/>
<feBlend mode="normal" in="SourceGraphic" in2="effect1_dropShadow" result="shape"/>
</filter>
</defs>
</svg>
