<svg width="513" height="152" viewBox="0 0 513 152" fill="none" xmlns="http://www.w3.org/2000/svg">
<path fill-rule="evenodd" clip-rule="evenodd" d="M152.41 72.2846C152.41 48.5897 136.177 32.9182 113.184 32.9182C100.572 32.9182 90.0047 37.4918 82.9337 45.6085V34.2137H62.6417V45.5616C57.959 38.9433 49.1398 32.9182 36.3558 32.9182C16.0638 32.9182 0.00195312 48.8708 0.00195312 73.7363C0.00195312 98.6019 16.0794 115.116 36.1997 115.116C48.8588 115.116 57.8965 109.076 62.6417 102.192V113.821H82.9337V102.208C90.0671 110.434 100.713 115.116 113.184 115.116C132.883 115.116 146.089 103.488 150.412 88.8149H128.716C126.124 94.1377 121.379 98.4458 112.747 98.4458C102.695 98.4458 94.6562 91.8275 93.6572 80.0581H151.848C152.246 77.4864 152.433 74.8868 152.41 72.2846ZM41.583 97.4321C30.8127 97.4321 20.6042 88.8158 20.6042 73.7373C20.6042 58.6587 30.8127 50.6045 41.583 50.6045C52.6499 50.6045 62.7023 58.9242 62.7023 74.0183C62.7023 89.1125 52.6031 97.4323 41.5362 97.4323L41.583 97.4321ZM112.605 49.3564C102.99 49.3564 95.3416 55.6001 93.7807 66.5266H131.586C131.336 55.9591 122.954 49.3564 112.605 49.3564Z" fill="white"/>
<path fill-rule="evenodd" clip-rule="evenodd" d="M204.235 32.9673C213.199 32.8368 221.863 36.1951 228.398 42.333C235.937 49.4353 240.604 60.2836 240.604 73.6919C240.604 98.5418 224.651 115.072 204.235 115.072C193.968 115.245 184.223 110.557 177.949 102.428V147.18L157.844 151.473V34.263H177.949L177.949 45.7513C184.12 37.4807 193.918 32.7152 204.235 32.9673ZM177.949 74.0188C177.949 89.113 188.158 97.4326 198.928 97.4326C209.854 97.4326 220.11 88.7538 220.11 73.7378C220.11 58.7217 209.698 50.605 198.928 50.605C188.158 50.605 177.949 58.9246 177.949 74.0188Z" fill="white"/>
<path d="M487.291 12.9559C487.048 7.90732 489.903 3.21961 494.5 1.11888C499.097 -0.98204 504.51 -0.0729631 508.169 3.41434C511.827 6.90183 512.994 12.265 511.116 16.9573C509.237 21.6496 504.692 24.7259 499.637 24.7253C496.418 24.8791 493.277 23.7077 490.944 21.484C488.611 19.2604 487.291 16.1786 487.291 12.9557V12.9559Z" fill="white"/>
<path d="M266.171 34.2166V113.824H246.051V38.4935L266.171 34.2166Z" fill="white"/>
<path d="M305.957 115.122C285.977 115.122 272.038 103.477 271.18 88.6799H291.472C292.19 94.7206 297.715 99.3098 305.832 99.3098C313.949 99.3098 318.054 95.7197 318.054 91.1306C318.054 76.895 273.084 85.9485 273.084 56.7904C273.084 43.5694 284.853 32.9395 304.552 32.9395C323.798 32.9395 335.443 43.4288 336.582 59.2409H317.352C316.774 52.9973 311.888 48.892 303.99 48.892C296.513 48.892 292.627 51.9047 292.627 56.5093C292.627 71.026 336.754 61.9725 337.316 91.1461C337.316 104.773 325.39 115.122 305.957 115.122Z" fill="white"/>
<path d="M387.641 50.7447V34.2146H369.831V14.8123L349.539 19.1517V34.2146H340.064V50.7447H349.539V89.1121C349.539 107.359 359.747 113.821 374.982 113.821H387.625V96.8698H378.26C372.016 96.8698 369.8 94.5753 369.8 89.2525V50.7445L387.641 50.7447Z" fill="white"/>
<path d="M413.209 7.49512L393.416 11.7095V113.825H413.521V7.49512H413.209Z" fill="white"/>
<path fill-rule="evenodd" clip-rule="evenodd" d="M419.216 74.0172C419.216 99.023 436.028 115.116 459.16 115.116C478.844 115.116 492.065 103.472 496.388 88.8616H474.676C472.1 94.1844 467.355 98.4925 458.739 98.4925C448.671 98.4925 440.632 91.8899 439.618 80.1048L497.824 80.105C498.223 77.523 498.411 74.9129 498.386 72.3002C498.386 48.5274 482.153 32.9182 459.16 32.9182C435.59 32.9182 419.216 49.0114 419.216 74.0172ZM477.565 66.5266H439.76C441.352 55.6001 448.969 49.4502 458.584 49.3564C468.933 49.3564 477.268 56.0372 477.565 66.5266Z" fill="white"/>
</svg>
