<svg width="106" height="131" viewBox="0 0 106 131" fill="none" xmlns="http://www.w3.org/2000/svg">
<path d="M19.6227 42.3685V54.1289C17.0549 55.0232 14.9404 56.9039 13.7518 59.4464L8.70815 70.2606C5.45535 77.2404 7.02624 85.4884 12.6179 90.7845L27.2793 104.666V128.123C27.2793 129.532 28.4222 130.675 29.8315 130.675H41.3165C42.7258 130.675 43.8687 129.532 43.8687 128.123C43.8687 126.713 42.7258 125.571 41.3165 125.571H32.3838V103.568C32.3838 102.867 32.0954 102.197 31.5862 101.715L16.1279 87.0782C12.1337 83.295 11.0113 77.403 13.3348 72.4175L18.377 61.6061C19.6007 58.9885 22.6591 57.9661 25.162 59.1348L50.3743 70.8903C46.8408 75.6621 40.3114 77.4638 34.7259 74.8602L27.7865 71.624C26.5088 71.0278 24.9902 71.5812 24.3948 72.8583C23.7989 74.1357 24.3517 75.6542 25.6291 76.2502L32.5688 79.4866C35.4135 80.8128 38.6096 81.4031 41.9107 81.0644C47.2961 86.8827 50.2492 94.4015 50.2492 102.376C50.2492 103.786 51.3921 104.928 52.8015 104.928C54.2108 104.928 55.3537 103.786 55.3537 102.376C55.3537 93.9967 52.5485 86.0504 47.3862 79.6045C51.1872 77.9137 54.4193 74.8998 56.3113 70.8428C56.3123 70.8408 56.3128 70.8387 56.3138 70.8367C57.5815 71.402 58.9829 71.719 60.4581 71.719C62.7367 71.719 64.8433 70.9681 66.5439 69.7012C68.1829 73.1538 71.7024 75.5473 75.7714 75.5473C77.3433 75.5473 78.833 75.1895 80.1643 74.5522C79.4604 79.1339 78.32 83.3116 77.1378 87.6351C75.2114 94.6805 73.2192 101.966 73.2192 111.278V125.571H64.2864C62.8771 125.571 61.7342 126.713 61.7342 128.123C61.7342 129.532 62.8771 130.675 64.2864 130.675H75.7714C77.1807 130.675 78.3236 129.532 78.3236 128.123V111.278C78.3236 102.651 80.1392 96.0112 82.0616 88.9816C83.988 81.9363 85.9802 74.651 85.9802 65.3384V50.0252C85.9802 44.396 81.4005 39.8163 75.7714 39.8163C73.4928 39.8163 71.3862 40.5672 69.6856 41.8341C68.0466 38.3815 64.5271 35.988 60.4581 35.988C58.1795 35.988 56.0729 36.7389 54.3723 38.0058C52.7333 34.5531 49.2138 32.1597 45.1448 32.1597C42.098 32.1597 39.3602 33.5032 37.4882 35.6269C35.6161 33.5032 32.8784 32.1597 29.8315 32.1597C24.2024 32.1597 19.6227 36.7394 19.6227 42.3685ZM70.667 50.0252C70.667 47.2106 72.9568 44.9207 75.7714 44.9207C78.586 44.9207 80.8758 47.2106 80.8758 50.0252V65.3384C80.8758 68.153 78.586 70.4429 75.7714 70.4429C72.9568 70.4429 70.667 68.153 70.667 65.3384V50.0252ZM55.3537 46.1968C55.3537 43.3823 57.6435 41.0924 60.4581 41.0924C63.2727 41.0924 65.5625 43.3823 65.5625 46.1968V61.5101C65.5625 64.3247 63.2727 66.6145 60.4581 66.6145C57.6435 66.6145 55.3537 64.3247 55.3537 61.5101V46.1968ZM40.0404 42.3685C40.0404 39.5539 42.3302 37.2641 45.1448 37.2641C47.9594 37.2641 50.2492 39.5539 50.2492 42.3685V61.5101C50.2492 62.9639 50.5568 64.3466 51.107 65.5998L40.0404 60.44V42.3685ZM24.7271 42.3685C24.7271 39.5539 27.017 37.2641 29.8315 37.2641C32.6461 37.2641 34.936 39.5539 34.936 42.3685V58.06L27.3204 54.5094C26.4915 54.1222 25.6189 53.8517 24.7271 53.6986V42.3685Z" fill="url(#paint0_linear)"/>
<path d="M55.353 11.7402V2.55221C55.353 1.14263 54.2101 0 52.8007 0C51.3914 0 50.2485 1.14263 50.2485 2.55221V11.7402C50.2485 13.1498 51.3914 14.2924 52.8007 14.2924C54.2101 14.2924 55.353 13.1498 55.353 11.7402Z" fill="url(#paint1_linear)"/>
<path d="M31.1051 20.1083C32.3259 19.4036 32.7444 17.8429 32.0398 16.6219L28.2114 9.98874C27.5068 8.76776 25.9458 8.3492 24.7251 9.05386C23.5044 9.75853 23.0858 11.3192 23.7905 12.5402L27.6188 19.1734C28.3212 20.3905 29.8811 20.815 31.1051 20.1083Z" fill="url(#paint2_linear)"/>
<path d="M10.4627 32.5007L3.8295 28.6724C2.6075 27.9675 1.04733 28.3863 0.343177 29.6073C-0.361489 30.828 0.0570741 32.3889 1.2778 33.0936L7.911 36.9219C9.12662 37.6233 10.6898 37.2134 11.3973 35.987C12.102 34.766 11.6834 33.2054 10.4627 32.5007Z" fill="url(#paint3_linear)"/>
<path d="M77.9801 19.1734L81.8084 12.5402C82.5131 11.3195 82.0945 9.75859 80.8738 9.05392C79.6521 8.349 78.0922 8.76807 77.3875 9.98879L73.5592 16.622C72.8545 17.8427 73.2731 19.4037 74.4938 20.1083C75.7097 20.8094 77.2724 20.3995 77.9801 19.1734Z" fill="url(#paint4_linear)"/>
<path d="M97.6874 36.9218L104.321 33.0935C105.541 32.3889 105.96 30.8282 105.255 29.6072C104.55 28.3865 102.99 27.9674 101.769 28.6723L95.1357 32.5006C93.915 33.2053 93.4964 34.766 94.2011 35.987C94.9035 37.2041 96.4634 37.6286 97.6874 36.9218Z" fill="url(#paint5_linear)"/>
<path d="M52.8007 130.675C54.2103 130.675 55.353 129.532 55.353 128.123C55.353 126.713 54.2103 125.57 52.8007 125.57C51.3912 125.57 50.2485 126.713 50.2485 128.123C50.2485 129.532 51.3912 130.675 52.8007 130.675Z" fill="url(#paint6_linear)"/>
<defs>
<linearGradient id="paint0_linear" x1="7.15258" y1="61.4772" x2="78.2755" y2="97.1856" gradientUnits="userSpaceOnUse">
<stop stop-color="#E97A53"/>
<stop offset="1" stop-color="#E04948"/>
</linearGradient>
<linearGradient id="paint1_linear" x1="50.2564" y1="4.25333" x2="55.7394" y2="5.48014" gradientUnits="userSpaceOnUse">
<stop stop-color="#E97A53"/>
<stop offset="1" stop-color="#E04948"/>
</linearGradient>
<linearGradient id="paint2_linear" x1="23.4621" y1="12.2051" x2="31.6724" y2="16.1196" gradientUnits="userSpaceOnUse">
<stop stop-color="#E97A53"/>
<stop offset="1" stop-color="#E04948"/>
</linearGradient>
<linearGradient id="paint3_linear" x1="0.0190714" y1="30.9887" x2="7.91142" y2="37.4856" gradientUnits="userSpaceOnUse">
<stop stop-color="#E97A53"/>
<stop offset="1" stop-color="#E04948"/>
</linearGradient>
<linearGradient id="paint4_linear" x1="73.2308" y1="12.2049" x2="81.441" y2="16.1196" gradientUnits="userSpaceOnUse">
<stop stop-color="#E97A53"/>
<stop offset="1" stop-color="#E04948"/>
</linearGradient>
<linearGradient id="paint5_linear" x1="93.877" y1="30.9888" x2="101.77" y2="37.4856" gradientUnits="userSpaceOnUse">
<stop stop-color="#E97A53"/>
<stop offset="1" stop-color="#E04948"/>
</linearGradient>
<linearGradient id="paint6_linear" x1="50.2564" y1="127.089" x2="54.3911" y2="129.68" gradientUnits="userSpaceOnUse">
<stop stop-color="#E97A53"/>
<stop offset="1" stop-color="#E04948"/>
</linearGradient>
</defs>
</svg>
