<svg width="375" height="1058" viewBox="0 0 375 1058" fill="none" xmlns="http://www.w3.org/2000/svg">
<path d="M-803.698 525.858L-635.38 -553.929C-632.69 -571.187 -619.164 -586.032 -597.778 -595.198C-576.391 -604.364 -548.896 -607.1 -521.341 -602.805L1517.61 -284.971C1545.17 -280.676 1570.52 -269.701 1588.11 -254.461C1605.69 -239.22 1614.05 -220.963 1611.36 -203.705L1556.35 149.207L1544.86 149.651C1462.64 160.971 1229.22 330.441 1169.34 342.059C1103.95 354.821 1103.35 346.79 931.235 476.511C848.078 539.184 656.719 628.497 512.847 567.636C239.597 452.046 111.358 470.071 42.5351 479.745C0.944021 485.591 -309.009 529.16 -543.21 752.433L-803.698 525.858Z" fill="url(#paint0_linear)"/>
<defs>
<linearGradient id="paint0_linear" x1="-943.615" y1="49.5373" x2="-647.541" y2="1283.47" gradientUnits="userSpaceOnUse">
<stop stop-color="#F08F77"/>
<stop offset="1" stop-color="#F7AB52"/>
</linearGradient>
</defs>
</svg>
